<svg width="25" height="26" viewBox="0 0 25 26" fill="none" xmlns="http://www.w3.org/2000/svg">
<path d="M5.49853e-06 5.75859C5.49853e-06 4.67859 0.228006 3.70659 0.684006 2.84259C1.16401 1.97859 1.83601 1.29459 2.70001 0.790593C3.56401 0.262593 4.56001 -0.00140762 5.68801 -0.00140762C6.84001 -0.00140762 7.83601 0.262593 8.67601 0.790593C9.54001 1.29459 10.2 1.97859 10.656 2.84259C11.136 3.70659 11.376 4.67859 11.376 5.75859C11.376 6.81459 11.136 7.78659 10.656 8.67459C10.2 9.53859 9.54001 10.2346 8.67601 10.7626C7.83601 11.2666 6.84001 11.5186 5.68801 11.5186C4.56001 11.5186 3.56401 11.2666 2.70001 10.7626C1.83601 10.2346 1.16401 9.53859 0.684006 8.67459C0.228006 7.78659 5.49853e-06 6.81459 5.49853e-06 5.75859ZM19.008 0.358592H21.708L5.50801 25.5586H2.80801L19.008 0.358592ZM2.55601 5.75859C2.55601 6.67059 2.83201 7.47459 3.38401 8.17059C3.93601 8.84259 4.70401 9.17859 5.68801 9.17859C6.67201 9.17859 7.44001 8.84259 7.99201 8.17059C8.54401 7.47459 8.82001 6.67059 8.82001 5.75859C8.82001 4.84659 8.54401 4.05459 7.99201 3.38259C7.44001 2.68659 6.67201 2.33859 5.68801 2.33859C4.70401 2.33859 3.93601 2.68659 3.38401 3.38259C2.83201 4.05459 2.55601 4.84659 2.55601 5.75859ZM13.14 20.1586C13.14 19.0786 13.368 18.1066 13.824 17.2426C14.304 16.3786 14.976 15.6946 15.84 15.1906C16.704 14.6626 17.7 14.3986 18.828 14.3986C19.98 14.3986 20.976 14.6626 21.816 15.1906C22.68 15.6946 23.34 16.3786 23.796 17.2426C24.276 18.1066 24.516 19.0786 24.516 20.1586C24.516 21.2146 24.276 22.1866 23.796 23.0746C23.34 23.9386 22.68 24.6346 21.816 25.1626C20.976 25.6666 19.98 25.9186 18.828 25.9186C17.7 25.9186 16.704 25.6666 15.84 25.1626C14.976 24.6346 14.304 23.9386 13.824 23.0746C13.368 22.1866 13.14 21.2146 13.14 20.1586ZM15.696 20.1586C15.696 21.0706 15.972 21.8746 16.524 22.5706C17.076 23.2426 17.844 23.5786 18.828 23.5786C19.812 23.5786 20.58 23.2426 21.132 22.5706C21.684 21.8746 21.96 21.0706 21.96 20.1586C21.96 19.2466 21.684 18.4546 21.132 17.7826C20.58 17.0866 19.812 16.7386 18.828 16.7386C17.844 16.7386 17.076 17.0866 16.524 17.7826C15.972 18.4546 15.696 19.2466 15.696 20.1586Z" fill="#FF3232"/>
</svg>
