<svg width="24" height="24" viewBox="0 0 24 24" fill="none" xmlns="http://www.w3.org/2000/svg">
<path fill-rule="evenodd" clip-rule="evenodd" d="M4.81999 18.4361C1.06 14.6761 1.06 8.57998 4.81999 4.81999C8.57998 1.06 14.6761 1.06 18.4361 4.81999C22.1807 8.5646 22.1961 14.6263 18.4821 18.3899C18.4662 18.4038 18.4507 18.4184 18.4356 18.4335C18.4204 18.4487 18.4058 18.4643 18.3917 18.4802C14.6283 22.1961 8.56522 22.1814 4.81999 18.4361ZM19.1144 20.5265C14.5458 24.3789 7.70897 24.1535 3.40578 19.8503C-1.13526 15.3093 -1.13526 7.94682 3.40578 3.40578C7.94682 -1.13526 15.3093 -1.13526 19.8503 3.40578C24.1528 7.70826 24.3788 14.5435 20.5284 19.1121L22.8498 21.4335C23.2403 21.824 23.2403 22.4572 22.8498 22.8477C22.4593 23.2383 21.8261 23.2383 21.4356 22.8477L19.1144 20.5265Z" fill="#5A5A5A"/>
</svg>
